<svg width="171" height="79" viewBox="0 0 171 79" fill="none" xmlns="http://www.w3.org/2000/svg">
<path d="M45.1017 45.592H34.0202V42.8285H45.1017C45.7174 42.8285 46.0252 42.5215 46.0252 41.9073C46.0252 41.2932 45.7174 40.9862 45.1017 40.9862H37.7141C35.2515 40.9862 34.0202 39.7579 34.0202 37.3015C34.0202 34.845 35.2515 33.6168 37.7141 33.6168H48.7956V36.3803H37.7141C37.0984 36.3803 36.7906 36.6873 36.7906 37.3015C36.7906 37.9156 37.0984 38.2226 37.7141 38.2226H45.1017C47.5643 38.2226 48.7956 39.4509 48.7956 41.9073C48.7956 44.3638 47.5643 45.592 45.1017 45.592Z" fill="#BCEBFF"/>
<path d="M53.4129 37.3015V45.592H50.6425V37.3015C50.6425 34.845 51.8738 33.6168 54.3363 33.6168H61.724C64.1866 33.6168 65.4178 34.845 65.4178 37.3015V45.592H62.6475V41.9073H55.2598V39.1438H62.6475V37.3015C62.6475 36.6873 62.3396 36.3803 61.724 36.3803H54.3363C53.7207 36.3803 53.4129 36.6873 53.4129 37.3015Z" fill="#BCEBFF"/>
<path d="M79.2697 38.2226V33.6168H82.0401V38.2226C82.0401 40.6791 80.8088 41.9073 78.3463 41.9073H76.0376V45.592H73.2672V41.9073H70.9586C68.496 41.9073 67.2648 40.6791 67.2648 38.2226V33.6168H70.0351V38.2226C70.0351 38.8368 70.343 39.1438 70.9586 39.1438H78.3463C78.9619 39.1438 79.2697 38.8368 79.2697 38.2226Z" fill="#BCEBFF"/>
<path d="M99.6597 36.3803H92.272C91.6564 36.3803 91.3486 36.6873 91.3486 37.3015V41.9073C91.3486 42.5215 91.6564 42.8285 92.272 42.8285H99.6597C100.275 42.8285 100.583 42.5215 100.583 41.9073V37.3015C100.583 36.6873 100.275 36.3803 99.6597 36.3803ZM92.272 33.6168H99.6597C102.122 33.6168 103.354 34.845 103.354 37.3015V41.9073C103.354 44.3638 102.122 45.592 99.6597 45.592H92.272C89.8095 45.592 88.5782 44.3638 88.5782 41.9073V37.3015C88.5782 34.845 89.8095 33.6168 92.272 33.6168Z" fill="#BCEBFF"/>
<path d="M117.649 41.9073V33.6168H120.419V41.9073C120.419 44.3638 119.188 45.592 116.725 45.592H109.338C106.875 45.592 105.644 44.3638 105.644 41.9073V33.6168H108.414V41.9073C108.414 42.5215 108.722 42.8285 109.338 42.8285H116.725C117.341 42.8285 117.649 42.5215 117.649 41.9073Z" fill="#BCEBFF"/>
<path d="M137.041 33.6168V36.3803H131.039V45.592H128.268V36.3803H122.266V33.6168H137.041Z" fill="#BCEBFF"/>
<path fill-rule="evenodd" clip-rule="evenodd" d="M85.5 0C99.5082 3.57802e-07 112.762 1.52435 124.459 4.24475C126.627 4.74902 128.741 5.29438 130.797 5.87877C135.974 7.35008 140.778 9.06867 145.129 11.0011C152.827 14.4199 159.227 18.5623 163.739 23.3007C168.266 28.0535 171 33.5325 171 39.5C171 45.4675 168.266 50.9465 163.739 55.6993C159.227 60.4377 152.827 64.5801 145.129 67.9989C129.727 74.8395 108.643 79 85.5 79C62.3573 79 41.2728 74.8395 25.8707 67.9989C18.1731 64.5801 11.7733 60.4377 7.2607 55.6993C2.73448 50.9465 0 45.4675 0 39.5C0 33.5325 2.73448 28.0535 7.2607 23.3007C11.7733 18.5623 18.1731 14.4199 25.8707 11.0011C30.2115 9.07323 35.0037 7.3582 40.166 5.88919C42.2335 5.30087 44.3603 4.75202 46.5413 4.24475C58.2376 1.52435 71.4918 0 85.5 0ZM88.2581 28.6915H82.7419V6.53267C82.2669 6.70537 81.7521 6.89878 81.2036 7.11493C78.1358 8.32395 74.0531 10.2106 69.9593 12.9199C64.3529 16.6302 58.8938 21.7598 55.8466 28.6915H49.9064C53.2702 19.3383 60.2442 12.7459 66.9096 8.33472C67.3228 8.06129 67.7356 7.79546 68.147 7.53752C64.1172 8.27949 59.7252 9.28514 55.341 10.6469C53.1173 11.3375 50.912 12.1147 48.7681 12.9877C43.6064 15.0895 38.8006 17.7468 34.9506 21.0895C29.5715 25.76 26.0926 31.7227 26.0046 39.5311C25.9168 47.3195 29.2943 53.2587 34.6247 57.9162C40.0308 62.6399 47.4119 65.997 55.0409 68.3516C59.1917 69.6327 63.3568 70.5991 67.2224 71.327C66.8822 71.1179 66.5414 70.904 66.2009 70.6849C59.5665 66.4166 52.7073 60.0615 49.5859 51.0945H55.5122C58.3411 57.6022 63.6179 62.4757 69.1906 66.0609C73.4 68.7691 77.6622 70.6573 80.8858 71.8693C81.5546 72.1208 82.1768 72.3422 82.7419 72.5353V51.0945H88.2581V72.5353C88.8232 72.3422 89.4454 72.1208 90.1142 71.8693C93.3378 70.6573 97.6 68.7691 101.809 66.0609C107.382 62.4757 112.659 57.6022 115.488 51.0945H121.414C118.293 60.0615 111.433 66.4166 104.799 70.6849C104.458 70.904 104.117 71.1178 103.777 71.327C107.643 70.5991 111.808 69.6327 115.959 68.3516C123.588 65.997 130.969 62.6399 136.375 57.9162C141.706 53.2587 145.083 47.3195 144.995 39.5311C144.907 31.7227 141.428 25.76 136.049 21.0895C132.19 17.739 127.371 15.0771 122.196 12.973C120.063 12.106 117.87 11.3337 115.659 10.6469C111.275 9.2851 106.882 8.2795 102.853 7.53752C103.264 7.79551 103.677 8.06123 104.09 8.33472C110.756 12.7459 117.73 19.3383 121.094 28.6915H115.153C112.106 21.7598 106.647 16.6302 101.041 12.9199C96.9469 10.2106 92.8642 8.32395 89.7964 7.11493C89.2479 6.89878 88.7331 6.70537 88.2581 6.53267V28.6915ZM37.544 12.4397C34.188 13.5304 31.0353 14.7308 28.1143 16.0281C20.8387 19.2595 15.1214 23.036 11.26 27.0906C7.41232 31.131 5.51613 35.3196 5.51613 39.5C5.51613 43.6804 7.41232 47.869 11.26 51.9094C15.1214 55.964 20.8387 59.7405 28.1143 62.9719C30.8161 64.1719 33.7161 65.2891 36.7918 66.3131C34.7297 65.0322 32.7784 63.6179 30.9901 62.0554C24.685 56.5461 20.3793 49.1547 20.4885 39.4689C20.5975 29.8031 24.9989 22.4351 31.3291 16.9389C33.2424 15.2777 35.3346 13.7839 37.544 12.4397ZM133.456 12.4397C135.665 13.7839 137.758 15.2776 139.671 16.9389C146.001 22.4351 150.402 29.8031 150.511 39.4689C150.62 49.1547 146.315 56.5461 140.01 62.0554C138.222 63.6179 136.27 65.0322 134.208 66.3131C137.284 65.2891 140.184 64.1719 142.886 62.9719C150.161 59.7405 155.879 55.964 159.74 51.9094C163.588 47.869 165.484 43.6804 165.484 39.5C165.484 35.3196 163.588 31.131 159.74 27.0906C155.879 23.036 150.161 19.2595 142.886 16.0281C139.965 14.7307 136.812 13.5304 133.456 12.4397Z" fill="#BCEBFF"/>
<path fill-rule="evenodd" clip-rule="evenodd" d="M85.5 18.8657C70.5755 18.8657 56.9431 13.3474 46.5413 4.24475C44.3603 4.75202 42.2335 5.30087 40.166 5.88919C42.8191 8.49326 45.697 10.8699 48.7681 12.9877C59.1963 20.1786 71.8523 24.384 85.5 24.3682C99.1291 24.3682 111.773 20.1591 122.196 12.973C125.266 10.8561 128.144 8.48085 130.797 5.87877C128.741 5.29438 126.627 4.74902 124.459 4.24475C114.057 13.3475 100.425 18.8657 85.5 18.8657Z" fill="#BCEBFF"/>
<path fill-rule="evenodd" clip-rule="evenodd" d="M85.5 18.8657C70.5755 18.8657 56.9431 13.3474 46.5413 4.24475C44.3603 4.75202 42.2335 5.30087 40.166 5.88919C42.8191 8.49326 45.697 10.8699 48.7681 12.9877C59.1963 20.1786 71.8523 24.384 85.5 24.3682C99.1291 24.3682 111.773 20.1591 122.196 12.973C125.266 10.8561 128.144 8.48085 130.797 5.87877C128.741 5.29438 126.627 4.74902 124.459 4.24475C114.057 13.3475 100.425 18.8657 85.5 18.8657Z" fill="#BCEBFF"/>
<path fill-rule="evenodd" clip-rule="evenodd" d="M85.5 60.1343C100.424 60.1343 114.057 65.6526 124.459 74.7552C126.64 74.248 128.766 73.6991 130.834 73.1108C128.181 70.5067 125.303 68.1301 122.232 66.0123C111.804 58.8214 99.1477 54.616 85.5 54.6318C71.8709 54.6318 59.2273 58.8409 48.8043 66.027C45.7339 68.1439 42.8561 70.5191 40.2027 73.1212C42.2586 73.7056 44.3732 74.251 46.5413 74.7552C56.9431 65.6525 70.5755 60.1343 85.5 60.1343Z" fill="#BCEBFF"/>
<path fill-rule="evenodd" clip-rule="evenodd" d="M85.5 60.1343C100.424 60.1343 114.057 65.6526 124.459 74.7552C126.64 74.248 128.766 73.6991 130.834 73.1108C128.181 70.5067 125.303 68.1301 122.232 66.0123C111.804 58.8214 99.1477 54.616 85.5 54.6318C71.8709 54.6318 59.2273 58.8409 48.8043 66.027C45.7339 68.1439 42.8561 70.5191 40.2027 73.1212C42.2586 73.7056 44.3732 74.251 46.5413 74.7552C56.9431 65.6525 70.5755 60.1343 85.5 60.1343Z" fill="#BCEBFF"/>
</svg>
