<svg width="297" height="138" viewBox="0 0 297 138" fill="none" xmlns="http://www.w3.org/2000/svg">
<path d="M78.3346 79.6418H59.0878V74.8144H78.3346C79.4039 74.8144 79.9385 74.278 79.9385 73.2052C79.9385 72.1325 79.4039 71.5961 78.3346 71.5961H65.5034C61.2263 71.5961 59.0878 69.4506 59.0878 65.1595C59.0878 60.8685 61.2263 58.7229 65.5034 58.7229H84.7502V63.5504H65.5034C64.4341 63.5504 63.8995 64.0868 63.8995 65.1595C63.8995 66.2323 64.4341 66.7687 65.5034 66.7687H78.3346C82.6117 66.7687 84.7502 68.9142 84.7502 73.2052C84.7502 77.4963 82.6117 79.6418 78.3346 79.6418Z" fill="#0051FF"/>
<path d="M92.7697 65.1595V79.6418H87.958V65.1595C87.958 60.8685 90.0966 58.7229 94.3736 58.7229H107.205C111.482 58.7229 113.62 60.8685 113.62 65.1595V79.6418H108.809V73.2052H95.9775V68.3778H108.809V65.1595C108.809 64.0868 108.274 63.5504 107.205 63.5504H94.3736C93.3044 63.5504 92.7697 64.0868 92.7697 65.1595Z" fill="#0051FF"/>
<path d="M137.679 66.7687V58.7229H142.491V66.7687C142.491 71.0597 140.352 73.2052 136.075 73.2052H132.065V79.6418H127.254V73.2052H123.244C118.967 73.2052 116.828 71.0597 116.828 66.7687V58.7229H121.64V66.7687C121.64 67.8414 122.175 68.3778 123.244 68.3778H136.075C137.144 68.3778 137.679 67.8414 137.679 66.7687Z" fill="#0051FF"/>
<path d="M173.093 63.5504H160.262C159.193 63.5504 158.658 64.0868 158.658 65.1595V73.2052C158.658 74.278 159.193 74.8144 160.262 74.8144H173.093C174.162 74.8144 174.697 74.278 174.697 73.2052V65.1595C174.697 64.0868 174.162 63.5504 173.093 63.5504ZM160.262 58.7229H173.093C177.37 58.7229 179.509 60.8685 179.509 65.1595V73.2052C179.509 77.4963 177.37 79.6418 173.093 79.6418H160.262C155.985 79.6418 153.846 77.4963 153.846 73.2052V65.1595C153.846 60.8685 155.985 58.7229 160.262 58.7229Z" fill="#0051FF"/>
<path d="M204.337 73.2052V58.7229H209.149V73.2052C209.149 77.4963 207.01 79.6418 202.733 79.6418H189.902C185.625 79.6418 183.486 77.4963 183.486 73.2052V58.7229H188.298V73.2052C188.298 74.278 188.833 74.8144 189.902 74.8144H202.733C203.803 74.8144 204.337 74.278 204.337 73.2052Z" fill="#0051FF"/>
<path d="M238.019 58.7229V63.5504H227.594V79.6418H222.782V63.5504H212.357V58.7229H238.019Z" fill="#0051FF"/>
<path fill-rule="evenodd" clip-rule="evenodd" d="M148.5 0C172.83 6.25021e-07 195.85 2.66279 216.165 7.41488C219.931 8.29575 223.603 9.24842 227.174 10.2692C236.165 12.8394 244.51 15.8415 252.067 19.2172C265.436 25.1892 276.552 32.4252 284.389 40.7026C292.251 49.0049 297 58.5758 297 69C297 79.4242 292.251 88.9951 284.389 97.2974C276.552 105.575 265.436 112.811 252.067 118.783C225.316 130.732 188.695 138 148.5 138C108.305 138 71.6843 130.732 44.9333 118.783C31.5638 112.811 20.4484 105.575 12.6107 97.2974C4.74937 88.9951 0 79.4242 0 69C0 58.5758 4.74937 49.0049 12.6107 40.7026C20.4484 32.4252 31.5638 25.1892 44.9333 19.2172C52.4726 15.8494 60.7958 12.8536 69.7621 10.2874C73.3529 9.25975 77.0469 8.30099 80.8349 7.41488C101.15 2.66279 124.17 0 148.5 0ZM153.29 50.1194H143.71V11.4115C142.885 11.7132 141.99 12.051 141.038 12.4286C135.71 14.5406 128.619 17.8363 121.508 22.5689C111.771 29.0502 102.289 38.0108 96.9967 50.1194H86.6796C92.5219 33.7808 104.635 22.2649 116.211 14.5594C116.929 14.0818 117.646 13.6174 118.361 13.1668C111.361 14.4629 103.733 16.2196 96.1185 18.5983C92.2563 19.8048 88.4261 21.1624 84.7026 22.6873C75.7374 26.3589 67.3904 31.0007 60.7037 36.84C51.361 44.9986 45.3188 55.4144 45.1659 69.0543C45.0135 82.6593 50.8796 93.0342 60.1377 101.17C69.5273 109.422 82.347 115.286 95.5973 119.399C102.807 121.637 110.041 123.325 116.755 124.597C116.164 124.231 115.572 123.858 114.98 123.475C103.458 116.019 91.5442 104.918 86.1229 89.2537H96.4159C101.329 100.622 110.494 109.135 120.173 115.398C127.484 120.128 134.887 123.427 140.486 125.544C141.648 125.983 142.728 126.37 143.71 126.707V89.2537H153.29V126.707C154.272 126.37 155.352 125.983 156.514 125.544C162.113 123.427 169.516 120.128 176.827 115.398C186.506 109.135 195.671 100.622 200.584 89.2537H210.877C205.456 104.918 193.542 116.019 182.02 123.475C181.428 123.858 180.836 124.231 180.245 124.597C186.959 123.325 194.193 121.637 201.403 119.399C214.653 115.286 227.473 109.422 236.862 101.17C246.12 93.0342 251.987 82.6593 251.834 69.0543C251.681 55.4144 245.639 44.9986 236.296 36.84C229.594 30.9871 221.224 26.3373 212.235 22.6617C208.531 21.1471 204.722 19.798 200.881 18.5983C193.267 16.2195 185.638 14.4629 178.639 13.1668C179.353 13.6175 180.071 14.0816 180.789 14.5594C192.365 22.2649 204.478 33.7808 210.32 50.1194H200.003C194.711 38.0108 185.229 29.0502 175.492 22.5689C168.381 17.8363 161.29 14.5406 155.962 12.4286C155.01 12.051 154.115 11.7132 153.29 11.4115V50.1194ZM65.208 21.7301C59.3792 23.6353 53.9034 25.7322 48.8301 27.9984C36.1935 33.6431 26.2634 40.2402 19.5569 47.3228C12.874 54.3806 9.58064 61.6975 9.58064 69C9.58064 76.3025 12.874 83.6194 19.5569 90.6772C26.2634 97.7598 36.1935 104.357 48.8301 110.002C53.5226 112.098 58.5595 114.049 63.9015 115.838C60.3199 113.601 56.9309 111.13 53.825 108.401C42.874 98.7768 35.3956 85.8651 35.5853 68.9457C35.7746 52.0612 43.4191 39.1905 54.4137 29.5894C57.7368 26.6876 61.3705 24.0781 65.208 21.7301ZM231.791 21.7301C235.629 24.0782 239.263 26.6875 242.586 29.5894C253.581 39.1905 261.225 52.0612 261.414 68.9457C261.604 85.8651 254.126 98.7768 243.175 108.401C240.069 111.13 236.68 113.601 233.098 115.838C238.44 114.049 243.477 112.098 248.17 110.002C260.806 104.357 270.737 97.7598 277.443 90.6772C284.126 83.6194 287.419 76.3025 287.419 69C287.419 61.6975 284.126 54.3806 277.443 47.3228C270.737 40.2402 260.806 33.6431 248.17 27.9984C243.096 25.7321 237.62 23.6354 231.791 21.7301Z" fill="#0051FF"/>
<path fill-rule="evenodd" clip-rule="evenodd" d="M148.5 32.9552C122.579 32.9552 98.9011 23.3158 80.8349 7.41488C77.0469 8.30099 73.3529 9.25975 69.7621 10.2874C74.3701 14.8363 79.3685 18.988 84.7026 22.6873C102.815 35.2487 124.796 42.5948 148.5 42.5672C172.172 42.5672 194.132 35.2146 212.235 22.6617C217.568 18.9638 222.566 14.8147 227.174 10.2692C223.603 9.24842 219.931 8.29575 216.165 7.41488C198.099 23.3158 174.422 32.9552 148.5 32.9552Z" fill="#0051FF"/>
<path fill-rule="evenodd" clip-rule="evenodd" d="M148.5 32.9552C122.579 32.9552 98.9011 23.3158 80.8349 7.41488C77.0469 8.30099 73.3529 9.25975 69.7621 10.2874C74.3701 14.8363 79.3685 18.988 84.7026 22.6873C102.815 35.2487 124.796 42.5948 148.5 42.5672C172.172 42.5672 194.132 35.2146 212.235 22.6617C217.568 18.9638 222.566 14.8147 227.174 10.2692C223.603 9.24842 219.931 8.29575 216.165 7.41488C198.099 23.3158 174.422 32.9552 148.5 32.9552Z" fill="#0051FF"/>
<path fill-rule="evenodd" clip-rule="evenodd" d="M148.5 105.045C174.421 105.045 198.099 114.684 216.165 130.585C219.953 129.699 223.647 128.74 227.238 127.713C222.63 123.164 217.631 119.012 212.297 115.313C194.185 102.751 172.204 95.4052 148.5 95.4328C124.828 95.4328 102.868 102.785 84.7653 115.338C79.4325 119.036 74.4343 123.185 69.8257 127.731C73.3966 128.752 77.0693 129.704 80.835 130.585C98.9012 114.684 122.578 105.045 148.5 105.045Z" fill="#0051FF"/>
<path fill-rule="evenodd" clip-rule="evenodd" d="M148.5 105.045C174.421 105.045 198.099 114.684 216.165 130.585C219.953 129.699 223.647 128.74 227.238 127.713C222.63 123.164 217.631 119.012 212.297 115.313C194.185 102.751 172.204 95.4052 148.5 95.4328C124.828 95.4328 102.868 102.785 84.7653 115.338C79.4325 119.036 74.4343 123.185 69.8257 127.731C73.3966 128.752 77.0693 129.704 80.835 130.585C98.9012 114.684 122.578 105.045 148.5 105.045Z" fill="#0051FF"/>
</svg>
