<svg width="1186" height="535" viewBox="0 0 1186 535" fill="none" xmlns="http://www.w3.org/2000/svg">
<path d="M319.898 308.756H244.985V290.041H319.898C324.06 290.041 326.141 287.962 326.141 283.803C326.141 279.644 324.06 277.565 319.898 277.565H269.956C253.308 277.565 244.985 269.247 244.985 252.611C244.985 235.976 253.308 227.658 269.956 227.658H344.87V246.373H269.956C265.794 246.373 263.713 248.452 263.713 252.611C263.713 256.77 265.794 258.85 269.956 258.85H319.898C336.546 258.85 344.87 267.167 344.87 283.803C344.87 300.438 336.546 308.756 319.898 308.756Z" fill="#0051FF" fill-opacity="0.46"/>
<path d="M376.084 252.611V308.756H357.355V252.611C357.355 235.976 365.679 227.658 382.326 227.658H432.269C448.916 227.658 457.24 235.976 457.24 252.611V308.756H438.512V283.803H388.569V265.088H438.512V252.611C438.512 248.452 436.431 246.373 432.269 246.373H382.326C378.164 246.373 376.084 248.452 376.084 252.611Z" fill="#0051FF" fill-opacity="0.46"/>
<path d="M550.882 258.85V227.658H569.61V258.85C569.61 275.485 561.287 283.803 544.639 283.803H529.032V308.756H510.304V283.803H494.697C478.049 283.803 469.726 275.485 469.726 258.85V227.658H488.454V258.85C488.454 263.008 490.535 265.088 494.697 265.088H544.639C548.801 265.088 550.882 263.008 550.882 258.85Z" fill="#0051FF" fill-opacity="0.46"/>
<path d="M688.723 246.373H638.781C634.619 246.373 632.538 248.452 632.538 252.611V283.803C632.538 287.962 634.619 290.041 638.781 290.041H688.723C692.885 290.041 694.966 287.962 694.966 283.803V252.611C694.966 248.452 692.885 246.373 688.723 246.373ZM638.781 227.658H688.723C705.37 227.658 713.694 235.976 713.694 252.611V283.803C713.694 300.438 705.37 308.756 688.723 308.756H638.781C622.133 308.756 613.809 300.438 613.809 283.803V252.611C613.809 235.976 622.133 227.658 638.781 227.658Z" fill="#0051FF" fill-opacity="0.46"/>
<path d="M810.333 283.803V227.658H829.061V283.803C829.061 300.438 820.737 308.756 804.09 308.756H754.147C737.5 308.756 729.176 300.438 729.176 283.803V227.658H747.905V283.803C747.905 287.962 749.986 290.041 754.147 290.041H804.09C808.252 290.041 810.333 287.962 810.333 283.803Z" fill="#0051FF" fill-opacity="0.46"/>
<path d="M941.432 227.658V246.373H900.853V308.756H882.125V246.373H841.547V227.658H941.432Z" fill="#0051FF" fill-opacity="0.46"/>
<path fill-rule="evenodd" clip-rule="evenodd" d="M856.37 28.7461C777.3 10.3231 687.699 0 593 0C498.301 0 408.7 10.3231 329.63 28.7461C314.886 32.1814 300.508 35.8983 286.532 39.8825C251.633 49.8308 219.237 61.4453 189.892 74.5014C137.854 97.654 94.5903 125.706 64.084 157.796C33.4858 189.983 15 227.088 15 267.5C15 307.913 33.4858 345.017 64.084 377.204C94.5903 409.294 137.854 437.346 189.892 460.499C219.306 473.586 251.786 485.224 286.78 495.188C300.173 499.002 313.935 502.57 328.034 505.881C328.566 506.005 329.098 506.13 329.63 506.254C408.7 524.677 498.301 535 593 535C687.699 535 777.3 524.677 856.37 506.254C870.169 503.039 883.648 499.577 896.777 495.88C932.703 485.764 966.01 473.89 996.108 460.499C1048.15 437.346 1091.41 409.294 1121.92 377.204C1152.51 345.017 1171 307.913 1171 267.5C1171 227.088 1152.51 189.983 1121.92 157.796C1091.41 125.706 1048.15 97.654 996.108 74.5014C966.694 61.4144 934.214 49.7759 899.221 39.8119C885.322 35.8544 871.027 32.1611 856.37 28.7461ZM475.69 51.0452C448.503 56.0597 418.878 62.8526 389.299 72.0458C400.448 78.6609 411.945 84.7495 423.758 90.2774C437.898 77.3589 452.721 66.1256 467.325 56.444C470.118 54.5923 472.908 52.792 475.69 51.0452ZM487.942 87.4953C479.385 93.168 470.879 99.3307 462.6 106.013C497.874 118.178 535.386 125.545 574.355 127.334V44.2402C571.144 45.4098 567.663 46.7196 563.955 48.1834C543.216 56.371 515.616 69.1479 487.942 87.4953ZM574.355 194.303V164.656C524.257 162.612 476.347 152.135 432.005 134.605C416.201 151.859 402.472 171.662 392.536 194.303H352.379C362.794 165.293 378.328 140.204 396.437 118.661C378.436 109.599 361.149 99.3283 344.684 87.9546C309.789 102.189 277.301 120.184 251.274 142.822C214.91 174.451 191.392 214.831 190.797 267.711C190.204 320.455 213.037 360.676 249.071 392.217C275.308 415.183 308.425 433.378 344.104 447.716C344.378 447.525 344.653 447.335 344.928 447.145C360.105 436.663 375.979 427.116 392.465 418.588C374.803 397.873 359.864 373.797 350.212 346.02H390.276C399.488 367.25 412.54 385.912 427.807 402.267C473.322 383.674 522.678 372.534 574.355 370.366V346.02H611.645V370.344C663.376 372.454 712.774 383.557 758.32 402.132C773.532 385.808 786.538 367.191 795.725 346.02H835.788C826.16 373.727 811.271 397.752 793.667 418.433C810.195 426.973 826.106 436.539 841.316 447.045C841.592 447.236 841.867 447.426 842.142 447.617C877.727 433.295 910.752 415.13 936.929 392.217C972.963 360.676 995.796 320.455 995.203 267.711C994.608 214.831 971.09 174.451 934.726 142.822C908.638 120.131 876.059 102.105 841.072 87.855C824.64 99.2038 807.392 109.456 789.433 118.506C807.598 140.085 823.181 165.224 833.621 194.303H793.464C783.502 171.603 769.728 151.757 753.872 134.471C709.56 152.02 661.691 162.534 611.645 164.634V194.303H574.355ZM611.645 44.2402V127.334C650.614 125.545 688.126 118.178 723.4 106.013C715.121 99.3308 706.615 93.1681 698.059 87.4953C670.384 69.1479 642.784 56.371 622.045 48.1834C618.337 46.7196 614.856 45.4098 611.645 44.2402ZM718.675 56.444C733.279 66.1257 748.102 77.359 762.242 90.2775C774.055 84.7496 785.553 78.661 796.701 72.0458C767.122 62.8524 737.495 56.0598 710.307 51.0452C713.09 52.7924 715.882 54.5919 718.675 56.444ZM716.558 483.037C742.216 478.197 769.826 471.801 797.38 463.359C787.222 457.303 776.771 451.686 766.055 446.532C752.287 458.771 737.799 469.452 723.467 478.689C721.164 480.173 718.859 481.621 716.558 483.037ZM703.256 447.375C711.412 442.118 719.475 436.452 727.296 430.353C690.893 417.373 652.052 409.521 611.645 407.666V491.22C615.466 489.912 619.672 488.413 624.193 486.71C645.986 478.502 674.799 465.715 703.256 447.375ZM574.355 491.22V407.666C533.948 409.521 495.107 417.373 458.703 430.353C466.525 436.452 474.588 442.118 482.744 447.375C511.201 465.715 540.014 478.502 561.807 486.71C566.328 488.413 570.534 489.912 574.355 491.22ZM462.533 478.689C448.201 469.452 433.713 458.771 419.945 446.532C409.229 451.686 398.778 457.303 388.62 463.358C416.173 471.801 443.782 478.197 469.439 483.037C467.139 481.621 464.836 480.173 462.533 478.689ZM268.806 84.2436C246.119 91.6297 224.806 99.759 205.059 108.545C155.874 130.428 117.224 156.004 91.1205 183.462C65.109 210.824 52.2903 239.189 52.2903 267.5C52.2903 295.811 65.109 324.176 91.1205 351.538C117.224 378.996 155.874 404.572 205.059 426.456C223.324 434.582 242.928 442.148 263.721 449.082C249.781 440.408 236.59 430.83 224.501 420.248C181.876 382.939 152.769 332.883 153.507 267.289C154.244 201.831 183.998 151.934 226.792 114.713C239.726 103.463 253.87 93.3464 268.806 84.2436ZM917.191 84.2436C932.128 93.3467 946.273 103.462 959.208 114.713C1002 151.934 1031.75 201.831 1032.49 267.289C1033.23 332.883 1004.12 382.939 961.499 420.248C949.41 430.83 936.218 440.408 922.277 449.082C943.07 442.148 962.676 434.582 980.941 426.456C1030.13 404.572 1068.78 378.996 1094.88 351.538C1120.89 324.176 1133.71 295.811 1133.71 267.5C1133.71 239.189 1120.89 210.824 1094.88 183.462C1068.78 156.004 1030.13 130.428 980.941 108.545C961.194 99.7587 939.879 91.6299 917.191 84.2436Z" fill="#0051FF" fill-opacity="0.46"/>
<path d="M304.898 308.756H229.985V290.041H304.898C309.06 290.041 311.141 287.962 311.141 283.803C311.141 279.644 309.06 277.565 304.898 277.565H254.956C238.308 277.565 229.985 269.247 229.985 252.611C229.985 235.976 238.308 227.658 254.956 227.658H329.87V246.373H254.956C250.794 246.373 248.713 248.452 248.713 252.611C248.713 256.77 250.794 258.85 254.956 258.85H304.898C321.546 258.85 329.87 267.167 329.87 283.803C329.87 300.438 321.546 308.756 304.898 308.756Z" fill="#0051FF" fill-opacity="0.46"/>
<path d="M361.084 252.611V308.756H342.355V252.611C342.355 235.976 350.679 227.658 367.326 227.658H417.269C433.916 227.658 442.24 235.976 442.24 252.611V308.756H423.512V283.803H373.569V265.088H423.512V252.611C423.512 248.452 421.431 246.373 417.269 246.373H367.326C363.164 246.373 361.084 248.452 361.084 252.611Z" fill="#0051FF" fill-opacity="0.46"/>
<path d="M535.882 258.85V227.658H554.61V258.85C554.61 275.485 546.287 283.803 529.639 283.803H514.032V308.756H495.304V283.803H479.697C463.049 283.803 454.726 275.485 454.726 258.85V227.658H473.454V258.85C473.454 263.008 475.535 265.088 479.697 265.088H529.639C533.801 265.088 535.882 263.008 535.882 258.85Z" fill="#0051FF" fill-opacity="0.46"/>
<path d="M673.723 246.373H623.781C619.619 246.373 617.538 248.452 617.538 252.611V283.803C617.538 287.962 619.619 290.041 623.781 290.041H673.723C677.885 290.041 679.966 287.962 679.966 283.803V252.611C679.966 248.452 677.885 246.373 673.723 246.373ZM623.781 227.658H673.723C690.37 227.658 698.694 235.976 698.694 252.611V283.803C698.694 300.438 690.37 308.756 673.723 308.756H623.781C607.133 308.756 598.809 300.438 598.809 283.803V252.611C598.809 235.976 607.133 227.658 623.781 227.658Z" fill="#0051FF" fill-opacity="0.46"/>
<path d="M795.333 283.803V227.658H814.061V283.803C814.061 300.438 805.737 308.756 789.09 308.756H739.147C722.5 308.756 714.176 300.438 714.176 283.803V227.658H732.905V283.803C732.905 287.962 734.986 290.041 739.147 290.041H789.09C793.252 290.041 795.333 287.962 795.333 283.803Z" fill="#0051FF" fill-opacity="0.46"/>
<path d="M926.432 227.658V246.373H885.853V308.756H867.125V246.373H826.547V227.658H926.432Z" fill="#0051FF" fill-opacity="0.46"/>
<path fill-rule="evenodd" clip-rule="evenodd" d="M841.37 28.7461C762.3 10.3231 672.699 0 578 0C483.301 0 393.7 10.3231 314.63 28.7461C299.886 32.1814 285.508 35.8983 271.532 39.8825C236.633 49.8308 204.237 61.4453 174.892 74.5014C122.854 97.654 79.5903 125.706 49.084 157.796C18.4858 189.983 0 227.088 0 267.5C0 307.913 18.4858 345.017 49.084 377.204C79.5903 409.294 122.854 437.346 174.892 460.499C204.306 473.586 236.786 485.224 271.78 495.188C285.173 499.002 298.935 502.57 313.034 505.881C313.566 506.005 314.098 506.13 314.63 506.254C393.7 524.677 483.301 535 578 535C672.699 535 762.3 524.677 841.37 506.254C855.169 503.039 868.648 499.577 881.777 495.88C917.703 485.764 951.01 473.89 981.108 460.499C1033.15 437.346 1076.41 409.294 1106.92 377.204C1137.51 345.017 1156 307.913 1156 267.5C1156 227.088 1137.51 189.983 1106.92 157.796C1076.41 125.706 1033.15 97.654 981.108 74.5014C951.694 61.4144 919.214 49.7759 884.221 39.8119C870.322 35.8544 856.027 32.1611 841.37 28.7461ZM460.69 51.0452C433.503 56.0597 403.878 62.8526 374.299 72.0458C385.448 78.6609 396.945 84.7495 408.758 90.2774C422.898 77.3589 437.721 66.1256 452.325 56.444C455.118 54.5923 457.908 52.792 460.69 51.0452ZM472.942 87.4953C464.385 93.168 455.879 99.3307 447.6 106.013C482.874 118.178 520.386 125.545 559.355 127.334V44.2402C556.144 45.4098 552.663 46.7196 548.955 48.1834C528.216 56.371 500.616 69.1479 472.942 87.4953ZM559.355 194.303V164.656C509.257 162.612 461.347 152.135 417.005 134.605C401.201 151.859 387.472 171.662 377.536 194.303H337.379C347.794 165.293 363.328 140.204 381.437 118.661C363.436 109.599 346.149 99.3283 329.684 87.9546C294.789 102.189 262.301 120.184 236.274 142.822C199.91 174.451 176.392 214.831 175.797 267.711C175.204 320.455 198.037 360.676 234.071 392.217C260.308 415.183 293.425 433.378 329.104 447.716C329.378 447.525 329.653 447.335 329.928 447.145C345.105 436.663 360.979 427.116 377.465 418.588C359.803 397.873 344.864 373.797 335.212 346.02H375.276C384.488 367.25 397.54 385.912 412.807 402.267C458.322 383.674 507.678 372.534 559.355 370.366V346.02H596.645V370.344C648.376 372.454 697.774 383.557 743.32 402.132C758.532 385.808 771.538 367.191 780.725 346.02H820.788C811.16 373.727 796.271 397.752 778.667 418.433C795.195 426.973 811.106 436.539 826.316 447.045C826.592 447.236 826.867 447.426 827.142 447.617C862.727 433.295 895.752 415.13 921.929 392.217C957.963 360.676 980.796 320.455 980.203 267.711C979.608 214.831 956.09 174.451 919.726 142.822C893.638 120.131 861.059 102.105 826.072 87.855C809.64 99.2038 792.392 109.456 774.433 118.506C792.598 140.085 808.181 165.224 818.621 194.303H778.464C768.502 171.603 754.728 151.757 738.872 134.471C694.56 152.02 646.691 162.534 596.645 164.634V194.303H559.355ZM596.645 44.2402V127.334C635.614 125.545 673.126 118.178 708.4 106.013C700.121 99.3308 691.615 93.1681 683.059 87.4953C655.384 69.1479 627.784 56.371 607.045 48.1834C603.337 46.7196 599.856 45.4098 596.645 44.2402ZM703.675 56.444C718.279 66.1257 733.102 77.359 747.242 90.2775C759.055 84.7496 770.553 78.661 781.701 72.0458C752.122 62.8524 722.495 56.0598 695.307 51.0452C698.09 52.7924 700.882 54.5919 703.675 56.444ZM701.558 483.037C727.216 478.197 754.826 471.801 782.38 463.359C772.222 457.303 761.771 451.686 751.055 446.532C737.287 458.771 722.799 469.452 708.467 478.689C706.164 480.173 703.859 481.621 701.558 483.037ZM688.256 447.375C696.412 442.118 704.475 436.452 712.296 430.353C675.893 417.373 637.052 409.521 596.645 407.666V491.22C600.466 489.912 604.672 488.413 609.193 486.71C630.986 478.502 659.799 465.715 688.256 447.375ZM559.355 491.22V407.666C518.948 409.521 480.107 417.373 443.703 430.353C451.525 436.452 459.588 442.118 467.744 447.375C496.201 465.715 525.014 478.502 546.807 486.71C551.328 488.413 555.534 489.912 559.355 491.22ZM447.533 478.689C433.201 469.452 418.713 458.771 404.945 446.532C394.229 451.686 383.778 457.303 373.62 463.358C401.173 471.801 428.782 478.197 454.439 483.037C452.139 481.621 449.836 480.173 447.533 478.689ZM253.806 84.2436C231.119 91.6297 209.806 99.759 190.059 108.545C140.874 130.428 102.224 156.004 76.1205 183.462C50.109 210.824 37.2903 239.189 37.2903 267.5C37.2903 295.811 50.109 324.176 76.1205 351.538C102.224 378.996 140.874 404.572 190.059 426.456C208.324 434.582 227.928 442.148 248.721 449.082C234.781 440.408 221.59 430.83 209.501 420.248C166.876 382.939 137.769 332.883 138.507 267.289C139.244 201.831 168.998 151.934 211.792 114.713C224.726 103.463 238.87 93.3464 253.806 84.2436ZM902.191 84.2436C917.128 93.3467 931.273 103.462 944.208 114.713C987.002 151.934 1016.75 201.831 1017.49 267.289C1018.23 332.883 989.124 382.939 946.499 420.248C934.41 430.83 921.218 440.408 907.277 449.082C928.07 442.148 947.676 434.582 965.941 426.456C1015.13 404.572 1053.78 378.996 1079.88 351.538C1105.89 324.176 1118.71 295.811 1118.71 267.5C1118.71 239.189 1105.89 210.824 1079.88 183.462C1053.78 156.004 1015.13 130.428 965.941 108.545C946.194 99.7587 924.879 91.6299 902.191 84.2436Z" fill="#0051FF" fill-opacity="0.46"/>
<path d="M334.898 308.756H259.985V290.041H334.898C339.06 290.041 341.141 287.962 341.141 283.803C341.141 279.644 339.06 277.565 334.898 277.565H284.956C268.308 277.565 259.985 269.247 259.985 252.611C259.985 235.976 268.308 227.658 284.956 227.658H359.87V246.373H284.956C280.794 246.373 278.713 248.452 278.713 252.611C278.713 256.77 280.794 258.85 284.956 258.85H334.898C351.546 258.85 359.87 267.167 359.87 283.803C359.87 300.438 351.546 308.756 334.898 308.756Z" fill="#0051FF" fill-opacity="0.46"/>
<path d="M391.084 252.611V308.756H372.355V252.611C372.355 235.976 380.679 227.658 397.326 227.658H447.269C463.916 227.658 472.24 235.976 472.24 252.611V308.756H453.512V283.803H403.569V265.088H453.512V252.611C453.512 248.452 451.431 246.373 447.269 246.373H397.326C393.164 246.373 391.084 248.452 391.084 252.611Z" fill="#0051FF" fill-opacity="0.46"/>
<path d="M565.882 258.85V227.658H584.61V258.85C584.61 275.485 576.287 283.803 559.639 283.803H544.032V308.756H525.304V283.803H509.697C493.049 283.803 484.726 275.485 484.726 258.85V227.658H503.454V258.85C503.454 263.008 505.535 265.088 509.697 265.088H559.639C563.801 265.088 565.882 263.008 565.882 258.85Z" fill="#0051FF" fill-opacity="0.46"/>
<path d="M703.723 246.373H653.781C649.619 246.373 647.538 248.452 647.538 252.611V283.803C647.538 287.962 649.619 290.041 653.781 290.041H703.723C707.885 290.041 709.966 287.962 709.966 283.803V252.611C709.966 248.452 707.885 246.373 703.723 246.373ZM653.781 227.658H703.723C720.37 227.658 728.694 235.976 728.694 252.611V283.803C728.694 300.438 720.37 308.756 703.723 308.756H653.781C637.133 308.756 628.809 300.438 628.809 283.803V252.611C628.809 235.976 637.133 227.658 653.781 227.658Z" fill="#0051FF" fill-opacity="0.46"/>
<path d="M825.333 283.803V227.658H844.061V283.803C844.061 300.438 835.737 308.756 819.09 308.756H769.147C752.5 308.756 744.176 300.438 744.176 283.803V227.658H762.905V283.803C762.905 287.962 764.986 290.041 769.147 290.041H819.09C823.252 290.041 825.333 287.962 825.333 283.803Z" fill="#0051FF" fill-opacity="0.46"/>
<path d="M956.432 227.658V246.373H915.853V308.756H897.125V246.373H856.547V227.658H956.432Z" fill="#0051FF" fill-opacity="0.46"/>
<path fill-rule="evenodd" clip-rule="evenodd" d="M871.37 28.7461C792.3 10.3231 702.699 0 608 0C513.301 0 423.7 10.3231 344.63 28.7461C329.886 32.1814 315.508 35.8983 301.532 39.8825C266.633 49.8308 234.237 61.4453 204.892 74.5014C152.854 97.654 109.59 125.706 79.084 157.796C48.4858 189.983 30 227.088 30 267.5C30 307.913 48.4858 345.017 79.084 377.204C109.59 409.294 152.854 437.346 204.892 460.499C234.306 473.586 266.786 485.224 301.78 495.188C315.173 499.002 328.935 502.57 343.034 505.881C343.566 506.005 344.098 506.13 344.63 506.254C423.7 524.677 513.301 535 608 535C702.699 535 792.3 524.677 871.37 506.254C885.169 503.039 898.648 499.577 911.777 495.88C947.703 485.764 981.01 473.89 1011.11 460.499C1063.15 437.346 1106.41 409.294 1136.92 377.204C1167.51 345.017 1186 307.913 1186 267.5C1186 227.088 1167.51 189.983 1136.92 157.796C1106.41 125.706 1063.15 97.654 1011.11 74.5014C981.694 61.4144 949.214 49.7759 914.221 39.8119C900.322 35.8544 886.027 32.1611 871.37 28.7461ZM490.69 51.0452C463.503 56.0597 433.878 62.8526 404.299 72.0458C415.448 78.6609 426.945 84.7495 438.758 90.2774C452.898 77.3589 467.721 66.1256 482.325 56.444C485.118 54.5923 487.908 52.792 490.69 51.0452ZM502.942 87.4953C494.385 93.168 485.879 99.3307 477.6 106.013C512.874 118.178 550.386 125.545 589.355 127.334V44.2402C586.144 45.4098 582.663 46.7196 578.955 48.1834C558.216 56.371 530.616 69.1479 502.942 87.4953ZM589.355 194.303V164.656C539.257 162.612 491.347 152.135 447.005 134.605C431.201 151.859 417.472 171.662 407.536 194.303H367.379C377.794 165.293 393.328 140.204 411.437 118.661C393.436 109.599 376.149 99.3283 359.684 87.9546C324.789 102.189 292.301 120.184 266.274 142.822C229.91 174.451 206.392 214.831 205.797 267.711C205.204 320.455 228.037 360.676 264.071 392.217C290.308 415.183 323.425 433.378 359.104 447.716C359.378 447.525 359.653 447.335 359.928 447.145C375.105 436.663 390.979 427.116 407.465 418.588C389.803 397.873 374.864 373.797 365.212 346.02H405.276C414.488 367.25 427.54 385.912 442.807 402.267C488.322 383.674 537.678 372.534 589.355 370.366V346.02H626.645V370.344C678.376 372.454 727.774 383.557 773.32 402.132C788.532 385.808 801.538 367.191 810.725 346.02H850.788C841.16 373.727 826.271 397.752 808.667 418.433C825.195 426.973 841.106 436.539 856.316 447.045C856.592 447.236 856.867 447.426 857.142 447.617C892.727 433.295 925.752 415.13 951.929 392.217C987.963 360.676 1010.8 320.455 1010.2 267.711C1009.61 214.831 986.09 174.451 949.726 142.822C923.638 120.131 891.059 102.105 856.072 87.855C839.64 99.2038 822.392 109.456 804.433 118.506C822.598 140.085 838.181 165.224 848.621 194.303H808.464C798.502 171.603 784.728 151.757 768.872 134.471C724.56 152.02 676.691 162.534 626.645 164.634V194.303H589.355ZM626.645 44.2402V127.334C665.614 125.545 703.126 118.178 738.4 106.013C730.121 99.3308 721.615 93.1681 713.059 87.4953C685.384 69.1479 657.784 56.371 637.045 48.1834C633.337 46.7196 629.856 45.4098 626.645 44.2402ZM733.675 56.444C748.279 66.1257 763.102 77.359 777.242 90.2775C789.055 84.7496 800.553 78.661 811.701 72.0458C782.122 62.8524 752.495 56.0598 725.307 51.0452C728.09 52.7924 730.882 54.5919 733.675 56.444ZM731.558 483.037C757.216 478.197 784.826 471.801 812.38 463.359C802.222 457.303 791.771 451.686 781.055 446.532C767.287 458.771 752.799 469.452 738.467 478.689C736.164 480.173 733.859 481.621 731.558 483.037ZM718.256 447.375C726.412 442.118 734.475 436.452 742.296 430.353C705.893 417.373 667.052 409.521 626.645 407.666V491.22C630.466 489.912 634.672 488.413 639.193 486.71C660.986 478.502 689.799 465.715 718.256 447.375ZM589.355 491.22V407.666C548.948 409.521 510.107 417.373 473.703 430.353C481.525 436.452 489.588 442.118 497.744 447.375C526.201 465.715 555.014 478.502 576.807 486.71C581.328 488.413 585.534 489.912 589.355 491.22ZM477.533 478.689C463.201 469.452 448.713 458.771 434.945 446.532C424.229 451.686 413.778 457.303 403.62 463.358C431.173 471.801 458.782 478.197 484.439 483.037C482.139 481.621 479.836 480.173 477.533 478.689ZM283.806 84.2436C261.119 91.6297 239.806 99.759 220.059 108.545C170.874 130.428 132.224 156.004 106.121 183.462C80.109 210.824 67.2903 239.189 67.2903 267.5C67.2903 295.811 80.109 324.176 106.121 351.538C132.224 378.996 170.874 404.572 220.059 426.456C238.324 434.582 257.928 442.148 278.721 449.082C264.781 440.408 251.59 430.83 239.501 420.248C196.876 382.939 167.769 332.883 168.507 267.289C169.244 201.831 198.998 151.934 241.792 114.713C254.726 103.463 268.87 93.3464 283.806 84.2436ZM932.191 84.2436C947.128 93.3467 961.273 103.462 974.208 114.713C1017 151.934 1046.75 201.831 1047.49 267.289C1048.23 332.883 1019.12 382.939 976.499 420.248C964.41 430.83 951.218 440.408 937.277 449.082C958.07 442.148 977.676 434.582 995.941 426.456C1045.13 404.572 1083.78 378.996 1109.88 351.538C1135.89 324.176 1148.71 295.811 1148.71 267.5C1148.71 239.189 1135.89 210.824 1109.88 183.462C1083.78 156.004 1045.13 130.428 995.941 108.545C976.194 99.7587 954.879 91.6299 932.191 84.2436Z" fill="#0051FF" fill-opacity="0.46"/>
</svg>
