<svg width="1024" height="1024" viewBox="0 0 1024 1024" fill="none" xmlns="http://www.w3.org/2000/svg">
<rect x="-0.0012207" width="1024" height="1024" fill="#BCEBFF"/>
<g filter="url(#filter0_diii_106_10)">
<path d="M308.542 361.87L260.061 313.389L272.156 301.294L320.637 349.775C323.331 352.468 326.022 352.471 328.709 349.783C331.397 347.095 331.395 344.404 328.701 341.711L296.38 309.39C285.607 298.617 285.596 287.854 296.348 277.102C307.099 266.35 317.862 266.361 328.636 277.135L377.117 325.616L365.021 337.712L316.54 289.231C313.847 286.537 311.156 286.535 308.468 289.222C305.78 291.91 305.783 294.601 308.476 297.294L340.797 329.615C351.571 340.389 351.582 351.152 340.83 361.903C330.078 372.655 319.315 372.644 308.542 361.87Z" fill="#0051FF"/>
<path d="M381.19 361.944L344.903 398.231L332.782 386.111L369.069 349.824C379.821 339.072 390.584 339.083 401.357 349.857L433.678 382.178C444.452 392.951 444.463 403.714 433.711 414.466L397.424 450.753L385.304 438.632L401.431 422.505L369.111 390.184L381.206 378.088L413.527 410.409L421.591 402.345C424.279 399.657 424.276 396.967 421.583 394.273L389.262 361.952C386.568 359.259 383.878 359.256 381.19 361.944Z" fill="#0051FF"/>
<path d="M490.281 479.099L510.44 458.94L522.56 471.06L502.401 491.219C491.649 501.971 480.887 501.96 470.113 491.186L460.013 481.086L443.885 497.214L431.765 485.094L447.892 468.966L437.792 458.866C427.019 448.092 427.008 437.329 437.759 426.578L457.919 406.418L470.039 418.539L449.88 438.698C447.192 441.386 447.195 444.077 449.888 446.77L482.209 479.091C484.902 481.784 487.593 481.787 490.281 479.099Z" fill="#0051FF"/>
<path d="M587.55 560.241L555.229 527.92C552.536 525.226 549.845 525.224 547.157 527.912L526.998 548.071C524.31 550.759 524.312 553.45 527.006 556.143L559.327 588.464C562.02 591.157 564.711 591.16 567.399 588.472L587.558 568.313C590.246 565.625 590.243 562.934 587.55 560.241ZM567.325 515.824L599.646 548.145C610.419 558.919 610.43 569.681 599.678 580.433L579.519 600.592C568.767 611.344 558.005 611.333 547.231 600.56L514.91 568.239C504.137 557.465 504.126 546.703 514.877 535.951L535.037 515.791C545.789 505.04 556.551 505.051 567.325 515.824Z" fill="#0051FF"/>
<path d="M642.06 663.133L678.347 626.846L690.467 638.966L654.18 675.254C643.428 686.005 632.666 685.994 621.892 675.221L589.571 642.9C578.798 632.126 578.787 621.364 589.538 610.612L625.826 574.325L637.946 586.445L601.659 622.732C598.971 625.42 598.974 628.111 601.667 630.804L633.988 663.125C636.681 665.818 639.372 665.821 642.06 663.133Z" fill="#0051FF"/>
<path d="M763.189 711.688L751.093 723.784L724.833 697.523L684.514 737.842L672.393 725.722L712.712 685.403L686.452 659.142L698.547 647.047L763.189 711.688Z" fill="#0051FF"/>
<path fill-rule="evenodd" clip-rule="evenodd" d="M836.699 528.081C797.435 465.003 746.12 400.345 684.835 339.06C623.549 277.774 558.891 226.46 495.813 187.196C484.051 179.874 472.344 172.971 460.724 166.501C431.709 150.346 403.237 136.887 375.808 126.334C327.167 107.621 281.038 97.753 240.555 98.7504C199.951 99.7508 164.006 111.769 137.888 137.888C111.769 164.007 99.7507 199.951 98.7503 240.555C97.7529 281.038 107.621 327.167 126.334 375.808C136.912 403.302 150.41 431.844 166.616 460.93C172.819 472.062 179.419 483.275 186.404 494.539C186.667 494.964 186.931 495.388 187.195 495.813C226.46 558.891 277.774 623.549 339.059 684.835C400.345 746.12 465.003 797.435 528.081 836.699C539.09 843.551 550.05 850.037 560.936 856.144C590.724 872.856 619.954 886.737 648.086 897.56C696.727 916.273 742.856 926.141 783.339 925.144C823.943 924.143 859.888 912.126 886.007 886.007C912.126 859.888 924.143 823.943 925.144 783.339C926.141 742.856 916.273 696.727 897.56 648.086C886.982 620.592 873.485 592.051 857.278 562.965C850.841 551.412 843.977 539.774 836.699 528.081ZM575.925 296.132C555.09 281.778 531.527 266.996 506.444 253.796C509.383 265.286 512.889 276.662 516.961 287.88C534.461 288.681 551.314 291.014 567.022 294.207C570.026 294.818 572.996 295.461 575.925 296.132ZM560.296 327.619C551.092 325.747 541.604 324.226 531.928 323.187C546.893 353.877 566.408 382.915 590.471 409.29L644.175 355.586C641.341 354.264 638.242 352.858 634.897 351.404C616.184 343.275 590.064 333.671 560.296 327.619ZM547.188 452.573L566.35 433.412C535.249 399.669 511.015 361.892 493.648 321.866C472.269 322.79 450.586 326.704 429.522 334.907L403.534 308.919C429.024 296.909 455.292 290.748 480.935 288.543C475.142 271.037 470.593 253.211 467.288 235.205C435.506 221.822 402.85 212.427 371.376 210.215C327.4 207.123 286.082 218.002 251.521 251.793C217.048 285.498 205.829 326.27 208.763 369.975C210.9 401.797 220.573 434.99 234.396 467.346C234.697 467.401 234.998 467.456 235.298 467.511C251.895 470.558 268.338 474.661 284.519 479.818C286.477 454.999 292.37 429.771 304.076 405.572L330.003 431.5C322.244 451.183 318.63 471.691 317.939 492.142C359.412 509.581 398.553 534.322 433.398 566.364L449.133 550.629L473.265 574.762L457.545 590.482C489.659 625.325 514.451 664.469 531.922 705.949C552.316 705.244 572.766 701.629 592.394 693.891L618.322 719.818C594.184 731.495 569.021 737.387 544.262 739.36C549.439 755.576 553.553 772.056 556.606 788.69C556.661 788.991 556.716 789.292 556.771 789.594C589.057 803.366 622.17 812.999 653.919 815.131C697.624 818.065 738.396 806.846 772.101 772.374C805.892 737.812 816.771 696.494 813.68 652.518C811.462 620.971 802.028 588.236 788.596 556.384C770.627 553.084 752.838 548.548 735.367 542.775C733.176 568.477 727.014 594.81 714.975 620.36L688.987 594.372C697.212 573.254 701.125 551.513 702.035 530.079C662.016 512.745 624.241 488.561 590.496 457.531L571.321 476.706L547.188 452.573ZM668.308 379.719L614.604 433.423C640.979 457.486 670.017 477.001 700.707 491.967C699.668 482.29 698.147 472.802 696.276 463.598C690.223 433.83 680.62 407.711 672.49 388.997C671.036 385.652 669.63 382.553 668.308 379.719ZM729.687 456.872C732.88 472.58 735.213 489.433 736.014 506.934C747.232 511.006 758.608 514.511 770.098 517.451C756.898 492.366 742.114 468.803 727.761 447.967C728.432 450.897 729.076 453.867 729.687 456.872ZM452.605 731.213C472.339 744.69 494.341 758.424 517.629 770.799C514.968 760.311 511.836 749.918 508.232 739.652C491.411 738.652 475.132 736.178 459.887 732.873C457.437 732.342 455.01 731.786 452.605 731.213ZM467.046 699.555C475.722 701.436 484.602 702.992 493.605 704.112C478.435 672.164 458.374 641.953 433.423 614.604L379.421 668.606C382.739 670.233 386.43 671.986 390.457 673.812C409.865 682.61 436.776 692.992 467.046 699.555ZM355.288 644.473L409.29 590.471C381.942 565.52 351.73 545.459 319.782 530.289C320.902 539.292 322.458 548.172 324.339 556.849C330.902 587.118 341.284 614.03 350.083 633.438C351.908 637.464 353.661 641.155 355.288 644.473ZM291.021 564.007C287.716 548.762 285.243 532.483 284.243 515.662C273.977 512.058 263.583 508.926 253.095 506.265C265.47 529.553 279.203 551.554 292.68 571.287C292.107 568.883 291.552 566.456 291.021 564.007ZM420.581 183.701C401.126 173.792 382.078 165.253 363.621 158.152C317.647 140.465 276.104 131.982 241.464 132.835C206.947 133.686 180.318 143.723 162.02 162.02C143.723 180.318 133.686 206.947 132.835 241.465C131.982 276.104 140.465 317.647 158.152 363.621C164.72 380.693 172.518 398.271 181.492 416.209C178.076 401.581 175.73 386.853 174.746 372.191C171.274 320.493 184.789 269.304 227.66 227.388C270.443 185.559 321.948 172.566 373.699 176.204C389.341 177.303 405.032 179.918 420.581 183.701ZM840.191 603.311C843.975 618.861 846.591 634.553 847.691 650.195C851.329 701.946 838.334 753.45 796.505 796.233C754.589 839.104 703.401 852.62 651.703 849.148C637.04 848.164 622.312 845.816 607.684 842.401C625.623 851.375 643.2 859.174 660.273 865.742C706.247 883.429 747.79 891.912 782.43 891.059C816.947 890.209 843.576 880.171 861.874 861.874C880.171 843.576 890.208 816.948 891.059 782.43C891.912 747.79 883.429 706.247 865.742 660.273C858.641 641.815 850.1 622.768 840.191 603.311Z" fill="#0051FF"/>
</g>
<defs>
<filter id="filter0_diii_106_10" x="94.2814" y="92.2815" width="851.331" height="851.331" filterUnits="userSpaceOnUse" color-interpolation-filters="sRGB">
<feFlood flood-opacity="0" result="BackgroundImageFix"/>
<feColorMatrix in="SourceAlpha" type="matrix" values="0 0 0 0 0 0 0 0 0 0 0 0 0 0 0 0 0 0 127 0" result="hardAlpha"/>
<feOffset dx="8" dy="6"/>
<feGaussianBlur stdDeviation="6.2"/>
<feComposite in2="hardAlpha" operator="out"/>
<feColorMatrix type="matrix" values="0 0 0 0 0 0 0 0 0 0.333333 0 0 0 0 1 0 0 0 0.69 0"/>
<feBlend mode="normal" in2="BackgroundImageFix" result="effect1_dropShadow_106_10"/>
<feBlend mode="normal" in="SourceGraphic" in2="effect1_dropShadow_106_10" result="shape"/>
<feColorMatrix in="SourceAlpha" type="matrix" values="0 0 0 0 0 0 0 0 0 0 0 0 0 0 0 0 0 0 127 0" result="hardAlpha"/>
<feOffset dx="5" dy="5"/>
<feGaussianBlur stdDeviation="1.95"/>
<feComposite in2="hardAlpha" operator="arithmetic" k2="-1" k3="1"/>
<feColorMatrix type="matrix" values="0 0 0 0 0.731731 0 0 0 0 0.817281 0 0 0 0 1 0 0 0 1 0"/>
<feBlend mode="normal" in2="shape" result="effect2_innerShadow_106_10"/>
<feColorMatrix in="SourceAlpha" type="matrix" values="0 0 0 0 0 0 0 0 0 0 0 0 0 0 0 0 0 0 127 0" result="hardAlpha"/>
<feOffset dx="2" dy="3"/>
<feGaussianBlur stdDeviation="1.6"/>
<feComposite in2="hardAlpha" operator="arithmetic" k2="-1" k3="1"/>
<feColorMatrix type="matrix" values="0 0 0 0 0.0548075 0 0 0 0 0.243846 0 0 0 0 1 0 0 0 1 0"/>
<feBlend mode="normal" in2="effect2_innerShadow_106_10" result="effect3_innerShadow_106_10"/>
<feColorMatrix in="SourceAlpha" type="matrix" values="0 0 0 0 0 0 0 0 0 0 0 0 0 0 0 0 0 0 127 0" result="hardAlpha"/>
<feOffset dx="-7" dy="-3"/>
<feGaussianBlur stdDeviation="1.6"/>
<feComposite in2="hardAlpha" operator="arithmetic" k2="-1" k3="1"/>
<feColorMatrix type="matrix" values="0 0 0 0 0 0 0 0 0 0.0682051 0 0 0 0 0.584615 0 0 0 0.77 0"/>
<feBlend mode="normal" in2="effect3_innerShadow_106_10" result="effect4_innerShadow_106_10"/>
</filter>
</defs>
</svg>
