<svg width="1024" height="1024" viewBox="0 0 1024 1024" fill="none" xmlns="http://www.w3.org/2000/svg">
<rect width="1024" height="1024" rx="290" fill="white"/>
<path d="M315.442 542.189H261.525V528.721H315.442C318.438 528.721 319.935 527.225 319.935 524.232C319.935 521.239 318.438 519.743 315.442 519.743H279.498C267.516 519.743 261.525 513.757 261.525 501.786C261.525 489.814 267.516 483.829 279.498 483.829H333.415V497.296H279.498C276.502 497.296 275.005 498.793 275.005 501.786C275.005 504.778 276.502 506.275 279.498 506.275H315.442C327.424 506.275 333.415 512.261 333.415 524.232C333.415 536.203 327.424 542.189 315.442 542.189Z" fill="#0051FF"/>
<path d="M355.88 501.786V542.189H342.401V501.786C342.401 489.814 348.392 483.829 360.373 483.829H396.318C408.3 483.829 414.29 489.814 414.29 501.786V542.189H400.811V524.232H364.866V510.764H400.811V501.786C400.811 498.793 399.313 497.296 396.318 497.296H360.373C357.378 497.296 355.88 498.793 355.88 501.786Z" fill="#0051FF"/>
<path d="M481.687 506.275V483.829H495.166V506.275C495.166 518.246 489.175 524.232 477.194 524.232H465.961V542.189H452.482V524.232H441.249C429.267 524.232 423.276 518.246 423.276 506.275V483.829H436.756V506.275C436.756 509.268 438.253 510.764 441.249 510.764H477.194C480.189 510.764 481.687 509.268 481.687 506.275Z" fill="#0051FF"/>
<path d="M580.894 497.296H544.949C541.954 497.296 540.456 498.793 540.456 501.786V524.232C540.456 527.225 541.954 528.721 544.949 528.721H580.894C583.889 528.721 585.387 527.225 585.387 524.232V501.786C585.387 498.793 583.889 497.296 580.894 497.296ZM544.949 483.829H580.894C592.876 483.829 598.866 489.814 598.866 501.786V524.232C598.866 536.203 592.876 542.189 580.894 542.189H544.949C532.968 542.189 526.977 536.203 526.977 524.232V501.786C526.977 489.814 532.968 483.829 544.949 483.829Z" fill="#0051FF"/>
<path d="M668.419 524.232V483.829H681.899V524.232C681.899 536.203 675.908 542.189 663.926 542.189H627.982C616 542.189 610.009 536.203 610.009 524.232V483.829H623.488V524.232C623.488 527.225 624.986 528.721 627.982 528.721H663.926C666.922 528.721 668.419 527.225 668.419 524.232Z" fill="#0051FF"/>
<path d="M762.774 483.829V497.296H733.569V542.189H720.09V497.296H690.885V483.829H762.774Z" fill="#0051FF"/>
<path fill-rule="evenodd" clip-rule="evenodd" d="M701.553 340.686C644.645 327.429 580.157 320 512 320C443.843 320 379.355 327.429 322.447 340.686C311.835 343.159 301.487 345.833 291.428 348.7C266.31 355.86 242.994 364.218 221.874 373.613C184.421 390.274 153.283 410.462 131.327 433.554C109.305 456.717 96 483.418 96 512.5C96 541.582 109.305 568.283 131.327 591.446C153.283 614.538 184.421 634.726 221.874 651.387C243.044 660.805 266.421 669.18 291.606 676.35C301.246 679.095 311.151 681.663 321.298 684.045C321.681 684.135 322.063 684.224 322.447 684.314C379.355 697.571 443.843 705 512 705C580.157 705 644.645 697.571 701.553 684.314C711.485 682 721.186 679.509 730.635 676.848C756.492 669.569 780.464 661.023 802.126 651.387C839.579 634.726 870.717 614.538 892.673 591.446C914.695 568.283 928 541.582 928 512.5C928 483.418 914.695 456.717 892.673 433.554C870.717 410.462 839.579 390.274 802.126 373.613C780.956 364.195 757.58 355.82 732.394 348.65C722.391 345.802 712.102 343.144 701.553 340.686ZM427.569 356.733C408.002 360.342 386.68 365.23 365.392 371.846C373.416 376.606 381.691 380.988 390.193 384.966C400.37 375.67 411.038 367.586 421.549 360.619C423.559 359.286 425.567 357.991 427.569 356.733ZM436.387 382.964C430.229 387.046 424.107 391.481 418.148 396.29C443.536 405.044 470.534 410.346 498.581 411.633V351.836C496.27 352.678 493.764 353.621 491.096 354.674C476.17 360.566 456.305 369.761 436.387 382.964ZM498.581 459.826V438.491C462.524 437.02 428.042 429.48 396.128 416.865C384.754 429.282 374.872 443.532 367.721 459.826H338.82C346.315 438.949 357.496 420.895 370.529 405.391C357.573 398.87 345.132 391.479 333.281 383.294C308.167 393.538 284.784 406.488 266.052 422.778C239.88 445.539 222.954 474.598 222.525 512.652C222.098 550.607 238.532 579.552 264.466 602.25C283.35 618.776 307.185 631.87 332.863 642.188C333.061 642.051 333.259 641.914 333.457 641.777C344.38 634.234 355.805 627.364 367.67 621.227C354.959 606.32 344.207 588.994 337.26 569.005H366.094C372.725 584.283 382.119 597.712 393.107 609.482C425.865 596.102 461.388 588.085 498.581 586.525V569.005H525.419V586.509C562.651 588.028 598.204 596.018 630.984 609.384C641.933 597.638 651.294 584.24 657.906 569.005H686.74C679.811 588.944 669.095 606.233 656.425 621.115C668.32 627.261 679.772 634.145 690.719 641.706C690.917 641.843 691.115 641.98 691.313 642.117C716.924 631.81 740.694 618.738 759.534 602.25C785.468 579.552 801.902 550.607 801.475 512.652C801.046 474.598 784.12 445.539 757.948 422.778C739.172 406.45 715.724 393.477 690.543 383.223C678.717 391.39 666.303 398.768 653.378 405.28C666.451 420.809 677.667 438.899 685.18 459.826H656.279C649.109 443.49 639.195 429.208 627.783 416.769C595.891 429.398 561.439 436.964 525.419 438.475V459.826H498.581ZM525.419 351.836V411.633C553.466 410.346 580.464 405.044 605.852 396.29C599.893 391.481 593.772 387.046 587.613 382.964C567.695 369.761 547.83 360.566 532.904 354.674C530.236 353.621 527.73 352.678 525.419 351.836ZM602.451 360.619C612.962 367.586 623.63 375.67 633.807 384.966C642.309 380.988 650.585 376.606 658.608 371.846C637.319 365.23 615.997 360.342 596.429 356.733C598.431 357.991 600.441 359.286 602.451 360.619ZM600.928 667.606C619.394 664.123 639.266 659.52 659.097 653.445C651.786 649.087 644.264 645.045 636.552 641.336C626.642 650.144 616.215 657.83 605.9 664.477C604.242 665.545 602.583 666.587 600.928 667.606ZM591.354 641.943C597.224 638.16 603.027 634.082 608.656 629.694C582.456 620.353 554.501 614.702 525.419 613.367V673.495C528.169 672.554 531.196 671.475 534.45 670.249C550.135 664.343 570.873 655.141 591.354 641.943ZM498.581 673.495V613.367C469.499 614.702 441.544 620.353 415.344 629.693C420.973 634.082 426.776 638.16 432.646 641.943C453.127 655.141 473.865 664.343 489.55 670.249C492.804 671.475 495.831 672.554 498.581 673.495ZM418.1 664.477C407.785 657.83 397.358 650.144 387.448 641.336C379.736 645.045 372.214 649.087 364.903 653.445C384.733 659.52 404.604 664.123 423.071 667.606C421.415 666.587 419.757 665.545 418.1 664.477ZM278.67 380.624C262.342 385.939 247.002 391.789 232.79 398.111C197.391 413.859 169.573 432.264 150.786 452.024C132.065 471.714 122.839 492.127 122.839 512.5C122.839 532.873 132.065 553.286 150.786 572.976C169.573 592.736 197.391 611.141 232.79 626.889C245.935 632.736 260.045 638.181 275.01 643.172C264.977 636.929 255.483 630.036 246.782 622.422C216.105 595.573 195.155 559.551 195.687 512.348C196.217 465.243 217.632 429.336 248.432 402.55C257.741 394.454 267.92 387.174 278.67 380.624ZM745.328 380.624C756.078 387.175 766.259 394.454 775.568 402.55C806.368 429.336 827.781 465.243 828.312 512.348C828.843 559.551 807.895 595.573 777.218 622.422C768.516 630.037 759.022 636.929 748.988 643.172C763.953 638.181 778.064 632.737 791.21 626.889C826.609 611.141 854.427 592.736 873.214 572.976C891.935 553.286 901.161 532.873 901.161 512.5C901.161 492.127 891.935 471.714 873.214 452.024C854.427 432.264 826.609 413.859 791.21 398.111C776.997 391.789 761.657 385.939 745.328 380.624Z" fill="#0051FF"/>
</svg>
